<mxfile host="app.diagrams.net" modified="2024-01-04T11:27:20.021Z" agent="Mozilla/5.0 (Windows NT 10.0; Win64; x64) AppleWebKit/537.36 (KHTML, like Gecko) Chrome/120.0.0.0 Safari/537.36" etag="irT7WjnvG8GreqK1FtXD" version="22.1.16" type="device">
  <diagram name="페이지-1" id="ntFw3D8m2A2V-B_ZsE0e">
    <mxGraphModel dx="2081" dy="982" grid="1" gridSize="10" guides="1" tooltips="1" connect="1" arrows="1" fold="1" page="1" pageScale="1" pageWidth="827" pageHeight="1169" math="0" shadow="0">
      <root>
        <mxCell id="0" />
        <mxCell id="1" parent="0" />
        <mxCell id="yr34xLRO3NIv9DKQIZ1P-1" value="" style="rounded=0;whiteSpace=wrap;html=1;" parent="1" vertex="1">
          <mxGeometry x="1110" y="1180" width="320" height="200" as="geometry" />
        </mxCell>
        <mxCell id="yr34xLRO3NIv9DKQIZ1P-5" value="Scenes" style="text;strokeColor=none;align=left;fillColor=none;html=1;verticalAlign=middle;whiteSpace=wrap;rounded=0;" parent="1" vertex="1">
          <mxGeometry x="1110" y="1180" width="60" height="30" as="geometry" />
        </mxCell>
        <mxCell id="yr34xLRO3NIv9DKQIZ1P-22" value="" style="rounded=0;whiteSpace=wrap;html=1;" parent="1" vertex="1">
          <mxGeometry x="668" y="520" width="320" height="860" as="geometry" />
        </mxCell>
        <mxCell id="yr34xLRO3NIv9DKQIZ1P-24" value="Managers" style="text;strokeColor=none;align=center;fillColor=none;html=1;verticalAlign=middle;whiteSpace=wrap;rounded=0;" parent="1" vertex="1">
          <mxGeometry x="668" y="520" width="60" height="30" as="geometry" />
        </mxCell>
        <mxCell id="JwKORyj21Hv2mmLw-Tg8-18" value="// eventsystem gameobject create&lt;br&gt;BaseScene.cs/init()&lt;br&gt;Managers.Resource.Instantiate()&lt;br&gt;&lt;br&gt;&lt;br&gt;// show ui scene&lt;br&gt;GameScene.cs/init()&lt;br&gt;Managers.UI.ShowSceneUI&amp;lt;UI_Inven&amp;gt;()" style="text;strokeColor=none;align=left;fillColor=none;html=1;verticalAlign=middle;whiteSpace=wrap;rounded=0;" parent="1" vertex="1">
          <mxGeometry x="1126" y="1210" width="286" height="155" as="geometry" />
        </mxCell>
        <mxCell id="JwKORyj21Hv2mmLw-Tg8-19" value="" style="rounded=0;whiteSpace=wrap;html=1;" parent="1" vertex="1">
          <mxGeometry x="1110" y="740" width="320" height="200" as="geometry" />
        </mxCell>
        <mxCell id="JwKORyj21Hv2mmLw-Tg8-20" value="UI" style="text;strokeColor=none;align=left;fillColor=none;html=1;verticalAlign=middle;whiteSpace=wrap;rounded=0;" parent="1" vertex="1">
          <mxGeometry x="1110" y="740" width="60" height="30" as="geometry" />
        </mxCell>
        <mxCell id="JwKORyj21Hv2mmLw-Tg8-21" value="// bind to /prefab/files&lt;br&gt;UI_Base.cs/Bind()&lt;br&gt;objects[] = util.FindChild()&lt;br&gt;&lt;br&gt;&lt;br&gt;// get to gameobject dictionary _objects&lt;br&gt;UI_Base.cs/Get()&lt;br&gt;_objects.TryGetValue()&lt;br&gt;&lt;br&gt;// bind evt and ui&lt;br&gt;UI_Base.cs/BindEvent()&lt;br&gt;evt.OnClickHandler / evt.OnDragHandler" style="text;strokeColor=none;align=left;fillColor=none;html=1;verticalAlign=middle;whiteSpace=wrap;rounded=0;" parent="1" vertex="1">
          <mxGeometry x="1126" y="770" width="286" height="155" as="geometry" />
        </mxCell>
        <mxCell id="JwKORyj21Hv2mmLw-Tg8-22" value="" style="rounded=0;whiteSpace=wrap;html=1;" parent="1" vertex="1">
          <mxGeometry x="1110" y="960" width="320" height="200" as="geometry" />
        </mxCell>
        <mxCell id="JwKORyj21Hv2mmLw-Tg8-23" value="Controllers" style="text;strokeColor=none;align=center;fillColor=none;html=1;verticalAlign=middle;whiteSpace=wrap;rounded=0;" parent="1" vertex="1">
          <mxGeometry x="1110" y="960" width="60" height="30" as="geometry" />
        </mxCell>
        <mxCell id="JwKORyj21Hv2mmLw-Tg8-24" value="// late tracing for player and set quater view&lt;br&gt;CameraController.cs/LateUpdate()&lt;br&gt;RaycastHit, Physics.Raycast()&lt;br&gt;&lt;br&gt;&lt;br&gt;// choose the player action&lt;br&gt;PlayerControllers.cs/Update()&lt;br&gt;NavMeshAgent, Physics.Raycast()" style="text;strokeColor=none;align=left;fillColor=none;html=1;verticalAlign=middle;whiteSpace=wrap;rounded=0;" parent="1" vertex="1">
          <mxGeometry x="1126" y="990" width="286" height="155" as="geometry" />
        </mxCell>
        <mxCell id="JwKORyj21Hv2mmLw-Tg8-25" value="" style="rounded=0;whiteSpace=wrap;html=1;" parent="1" vertex="1">
          <mxGeometry x="1110" y="520" width="320" height="200" as="geometry" />
        </mxCell>
        <mxCell id="JwKORyj21Hv2mmLw-Tg8-26" value="Utils" style="text;strokeColor=none;align=left;fillColor=none;html=1;verticalAlign=middle;whiteSpace=wrap;rounded=0;" parent="1" vertex="1">
          <mxGeometry x="1110" y="520" width="60" height="30" as="geometry" />
        </mxCell>
        <mxCell id="JwKORyj21Hv2mmLw-Tg8-29" value="// define functions&lt;br&gt;Extension.cs/FindChild(), GetOrAddComponent(), BindEvent()&lt;br&gt;&lt;br&gt;&lt;br&gt;// define enum objects&lt;br&gt;Define.cs/Scene, Sound, UIEvent, MouseEvent, CameraMode" style="text;strokeColor=none;align=left;fillColor=none;html=1;verticalAlign=middle;whiteSpace=wrap;rounded=0;" parent="1" vertex="1">
          <mxGeometry x="1126" y="550" width="286" height="155" as="geometry" />
        </mxCell>
        <mxCell id="JwKORyj21Hv2mmLw-Tg8-39" value="// load stat data&lt;br&gt;DataManager.cs/init()&lt;br&gt;StatDict = LoadJson&amp;lt;&amp;gt;().MakeDict()&lt;br&gt;&lt;br&gt;&lt;br&gt;// define LoadJson function&lt;br&gt;DataManager.cs/LoadJson&amp;lt;&amp;gt;()&lt;br&gt;JsonUtility.FromJson&amp;lt;&amp;gt;()&lt;br&gt;&lt;br&gt;&lt;br&gt;// tracing mouse pointer position&lt;br&gt;InputManager.cs/Onupdate()&lt;br&gt;EventSystem.current.IsPointerOverGameObject(),&lt;br&gt;Input.GetMouseButton()&lt;br&gt;&lt;br&gt;&lt;br&gt;// play object init function&lt;br&gt;Managers.cs/init()&lt;br&gt;s_instance._objects.init()&lt;br&gt;&lt;br&gt;&lt;br&gt;// return objects&lt;br&gt;Managers.cs/Objects&lt;br&gt;get { return Instance._objects; }&lt;br&gt;&lt;br&gt;&lt;br&gt;// define fucntion poolmanager&lt;br&gt;PoolManager.cs/Pool/Create(), Push(), Pop()&lt;br&gt;Stack&amp;lt;Poolable&amp;gt; _poolStack&lt;br&gt;&lt;br&gt;&lt;br&gt;// object to fit in the pool&lt;br&gt;PoolManager.cs/CreatePool(), Push, Pop()&lt;br&gt;Dictionary&amp;lt;string, Pool&amp;gt; _pool&lt;br&gt;&lt;br&gt;&lt;br&gt;// define Load function&lt;br&gt;ResourceManager.cs/Load&amp;lt;&amp;gt;()&lt;br&gt;Managers.Pool.GetOriginal()&lt;br&gt;&lt;br&gt;&lt;br&gt;// define Instantiate function&lt;br&gt;ResourceManager.cs/Instantiate()&lt;br&gt;object.Instantiate()&lt;br&gt;&lt;br&gt;&lt;br&gt;// define audio play fucntion, choose each audio type&lt;br&gt;" style="text;strokeColor=none;align=left;fillColor=none;html=1;verticalAlign=middle;whiteSpace=wrap;rounded=0;" parent="1" vertex="1">
          <mxGeometry x="680" y="727" width="300" height="310" as="geometry" />
        </mxCell>
        <mxCell id="DncAALMruljHTGZVeiKz-7" value="" style="endArrow=classic;html=1;rounded=0;entryX=1;entryY=0.07;entryDx=0;entryDy=0;entryPerimeter=0;" edge="1" parent="1">
          <mxGeometry width="50" height="50" relative="1" as="geometry">
            <mxPoint x="880" y="645" as="sourcePoint" />
            <mxPoint x="880" y="580.2" as="targetPoint" />
            <Array as="points">
              <mxPoint x="932" y="645" />
              <mxPoint x="932" y="580" />
            </Array>
          </mxGeometry>
        </mxCell>
        <mxCell id="DncAALMruljHTGZVeiKz-14" value="" style="endArrow=classic;html=1;rounded=0;" edge="1" parent="1">
          <mxGeometry width="50" height="50" relative="1" as="geometry">
            <mxPoint x="909.9988411724609" y="1160" as="sourcePoint" />
            <mxPoint x="1120" y="1255" as="targetPoint" />
          </mxGeometry>
        </mxCell>
        <mxCell id="DncAALMruljHTGZVeiKz-16" value="" style="endArrow=classic;html=1;rounded=0;exitX=0.91;exitY=-0.007;exitDx=0;exitDy=0;exitPerimeter=0;entryX=-0.014;entryY=0.309;entryDx=0;entryDy=0;entryPerimeter=0;" edge="1" parent="1" source="JwKORyj21Hv2mmLw-Tg8-39" target="JwKORyj21Hv2mmLw-Tg8-24">
          <mxGeometry width="50" height="50" relative="1" as="geometry">
            <mxPoint x="1500" y="990" as="sourcePoint" />
            <mxPoint x="1590" y="1150" as="targetPoint" />
            <Array as="points">
              <mxPoint x="1020" y="725" />
              <mxPoint x="1020" y="1036" />
            </Array>
          </mxGeometry>
        </mxCell>
        <mxCell id="DncAALMruljHTGZVeiKz-17" value="" style="endArrow=classic;html=1;rounded=0;" edge="1" parent="1">
          <mxGeometry width="50" height="50" relative="1" as="geometry">
            <mxPoint x="1020" y="1030" as="sourcePoint" />
            <mxPoint x="1120" y="1112" as="targetPoint" />
            <Array as="points">
              <mxPoint x="1020" y="1112" />
            </Array>
          </mxGeometry>
        </mxCell>
      </root>
    </mxGraphModel>
  </diagram>
</mxfile>
